<svg width="269" height="309" viewBox="0 0 269 309" fill="none" xmlns="http://www.w3.org/2000/svg">
<path d="M58.8218 14.9588H6.76264e-07V296.294H58.8218V14.9588Z" fill="#FB8500"/>
<path d="M120.076 309C120.076 309 81.052 309 19.835 309C-41.382 309 58.6433 223.563 58.6433 163.648C58.6433 103.733 -41.3816 0 19.835 0C81.0516 0 123.251 0 123.251 0C153.59 0 179.645 6.18605 201.417 18.5581C223.189 30.8296 239.87 48.4824 251.462 71.5166C263.154 94.4502 269 121.96 269 154.047C269 186.235 263.103 213.896 251.31 237.031C239.618 260.166 222.685 277.969 200.51 290.442C178.335 302.814 151.524 309 120.076 309Z" fill="url(#paint0_linear_29_43)"/>
<path d="M207.277 159.328C207.277 213.36 164.813 257.161 112.432 257.161C60.05 257.161 144.047 213.36 144.047 159.328C144.047 105.296 60.05 61.4951 112.432 61.4951C164.813 61.4951 207.277 105.296 207.277 159.328Z" fill="#ECECEC"/>
<defs>
<linearGradient id="paint0_linear_29_43" x1="-140.052" y1="156.533" x2="383.742" y2="156.533" gradientUnits="userSpaceOnUse">
<stop stop-color="#323232"/>
<stop offset="1" stop-color="#9747FF"/>
</linearGradient>
</defs>
</svg>
